<svg id="ic_wa" xmlns="http://www.w3.org/2000/svg" width="26" height="26" viewBox="0 0 26 26">
  <path id="Path_1" data-name="Path 1" d="M13,0A13,13,0,1,0,26,13,13,13,0,0,0,13,0Zm.276,20.569h0a7.778,7.778,0,0,1-3.718-.947L5.429,20.7l1.1-4.031a7.781,7.781,0,1,1,6.742,3.9Zm0,0" fill="#f9f9f9"/>
  <path id="Path_2" data-name="Path 2" d="M140.541,124.469a6.468,6.468,0,0,0-5.481,9.9l.154.245L134.56,137l2.448-.642.236.14a6.457,6.457,0,0,0,3.291.9h0a6.467,6.467,0,0,0,0-12.935Zm3.8,9.244a2,2,0,0,1-1.312.924,2.668,2.668,0,0,1-1.225-.077,11.222,11.222,0,0,1-1.108-.409,8.665,8.665,0,0,1-3.321-2.935,3.78,3.78,0,0,1-.794-2.011,2.179,2.179,0,0,1,.68-1.621.715.715,0,0,1,.519-.243c.13,0,.259,0,.373.007s.28-.045.437.334.551,1.346.6,1.443a.358.358,0,0,1,.016.341,5.542,5.542,0,0,1-.486.665c-.086.107-.2.2-.085.4a5.86,5.86,0,0,0,1.081,1.346,5.314,5.314,0,0,0,1.564.965c.194.1.308.081.421-.049s.486-.568.616-.762.259-.162.437-.1,1.134.535,1.328.632.324.146.372.227a1.621,1.621,0,0,1-.113.924Zm0,0" transform="translate(-127.263 -118.148)" fill="#f9f9f9"/>
</svg>
